<?xml version="1.0" standalone="no"?>
<!DOCTYPE svg PUBLIC "-//W3C//DTD SVG 1.1//EN" "http://www.w3.org/Graphics/SVG/1.1/DTD/svg11.dtd" >
<svg xmlns="http://www.w3.org/2000/svg" xmlns:xlink="http://www.w3.org/1999/xlink" version="1.1">
<metadata></metadata>
<defs>
<font id="megrimmedium" horiz-adv-x="1118" >
<font-face units-per-em="2048" ascent="1638" descent="-410" />
<missing-glyph horiz-adv-x="604" />
<glyph horiz-adv-x="0" />
<glyph unicode="&#xd;" horiz-adv-x="681" />
<glyph unicode=" "  horiz-adv-x="604" />
<glyph unicode="&#x09;" horiz-adv-x="604" />
<glyph unicode="&#xa0;" horiz-adv-x="604" />
<glyph unicode="!" horiz-adv-x="491" d="M178 0v119h135v-119h-135zM215 276v1158h61v-1158h-61z" />
<glyph unicode="&#x22;" horiz-adv-x="626" d="M170 1061v373h61v-373h-61zM395 1061v373h62v-373h-62z" />
<glyph unicode="#" horiz-adv-x="1191" d="M117 481v62h215l61 348h-235v61h245l84 475l62 -10l-82 -465h342l84 475l61 -10l-82 -465h203v-61h-215l-61 -348h235v-62h-246l-83 -475l-62 10l82 465h-342l-84 -475l-61 10l81 465h-202zM393 543h344l62 348h-344z" />
<glyph unicode="$" horiz-adv-x="1077" d="M135 209l41 45q100 -92 309 -96v549q-80 25 -131 46t-105 57t-81 89t-27 125q0 152 96.5 228.5t247.5 82.5v99h62v-99q227 -6 327 -112l-40 -45q-92 88 -287 96v-520q72 -20 102.5 -30.5t91 -33t90 -45t65.5 -57.5t50.5 -80t14.5 -102q0 -135 -106.5 -218.5t-307.5 -91.5 v-96h-62v96q-252 8 -350 113zM203 1020q0 -100 72.5 -153.5t209.5 -94.5v502q-282 -12 -282 -254zM547 160q174 10 263 80.5t89 162.5q0 51 -21.5 93.5t-49 69t-82 51t-92 38t-107.5 33.5v-528z" />
<glyph unicode="%" horiz-adv-x="1191" d="M121 985q0 88 61.5 146.5t143.5 58.5q88 0 146 -61.5t58 -143.5q0 -88 -61 -146.5t-143 -58.5q-88 0 -146.5 61.5t-58.5 143.5zM182 985q0 -61 43 -102t101 -41q61 0 102 43t41 100q0 61 -43 102t-100 41q-61 0 -102.5 -43t-41.5 -100zM240 406l665 665l43 -43l-665 -666 zM657 449q0 88 61.5 146t143.5 58q88 0 146.5 -61.5t58.5 -142.5q0 -88 -61.5 -146.5t-143.5 -58.5q-88 0 -146.5 61.5t-58.5 143.5zM719 449q0 -61 43 -102.5t100 -41.5q61 0 102.5 43t41.5 101q0 61 -43.5 102t-100.5 41q-61 0 -102 -43t-41 -100z" />
<glyph unicode="&#x26;" horiz-adv-x="1200" d="M106 459q0 170 109 282.5t305 139.5l-293 553h785v-62h-682l579 -1091q102 170 103 403h61q0 -287 -127 -473l113 -211h-70l-84 160q-152 -170 -389 -170q-164 0 -287 126t-123 343zM168 459q0 -174 106.5 -291t241.5 -117q217 0 354 172l-317 598q-172 -23 -278.5 -123 t-106.5 -239z" />
<glyph unicode="'" horiz-adv-x="401" d="M170 1061v373h61v-373h-61z" />
<glyph unicode="(" horiz-adv-x="501" d="M168 453v528q0 430 194 563l39 -49q-172 -117 -172 -514v-528q0 -397 172 -514l-39 -50q-194 134 -194 564z" />
<glyph unicode=")" horiz-adv-x="501" d="M100 -61q172 117 172 514v528q0 397 -172 514l39 49q195 -133 195 -563v-528q0 -430 -195 -564z" />
<glyph unicode="*" horiz-adv-x="892" d="M123 1182l16 47l283 -92v297h49v-297l283 92l16 -47l-285 -92l177 -242l-39 -29l-177 242l-176 -242l-39 29l177 242z" />
<glyph unicode="+" horiz-adv-x="798" d="M135 481v62h234v233h61v-233h234v-62h-234v-233h-61v233h-234z" />
<glyph unicode="," horiz-adv-x="458" d="M135 -319q23 31 54.5 127t31.5 192h-59v119h135q0 -309 -111 -471z" />
<glyph unicode="-" horiz-adv-x="745" d="M170 481v62h405v-62h-405z" />
<glyph unicode="." horiz-adv-x="458" d="M162 0v119h135v-119h-135z" />
<glyph unicode="/" horiz-adv-x="841" d="M80 -51l629 1558l55 -22l-629 -1559z" />
<glyph unicode="0" horiz-adv-x="1159" d="M150 717q0 340 105 538.5t324.5 198.5t325 -199.5t105.5 -537.5t-105.5 -537.5t-325 -199.5t-324.5 198.5t-105 538.5zM211 717q0 -307 95 -491.5t273.5 -184.5t273.5 185.5t95 490.5t-95 490.5t-273.5 185.5t-273.5 -184.5t-95 -491.5z" />
<glyph unicode="1" horiz-adv-x="534" d="M96 836l172 598h62v-1434h-62v1210l-108 -374h-64z" />
<glyph unicode="2" horiz-adv-x="1079" d="M131 0v143q0 94 56.5 186.5t140.5 162t182 146.5t182 141.5t140.5 144.5t56.5 155q0 102 -29 168t-85 95.5t-112.5 40t-138.5 10.5q-119 0 -199.5 -55.5t-123.5 -192.5l221 -166h-100l-191 143q43 168 139.5 250t253.5 82q225 0 325.5 -88t100.5 -287q0 -90 -56 -178 t-140 -155.5t-182.5 -142.5t-182.5 -140.5t-140 -149.5t-56 -170v-82h749v-61h-811z" />
<glyph unicode="3" horiz-adv-x="1140" d="M72 233l57 25q6 -8 16.5 -23.5t49 -52.5t84 -65.5t120 -52t156.5 -23.5q195 0 300.5 105.5t105.5 287.5q0 170 -117 264.5t-303 124.5l-103 17l416 532h-676v62h803l-432 -549q92 -12 172 -42t149.5 -82t110.5 -136t41 -191q0 -211 -126 -332.5t-341 -121.5 q-98 0 -184 26.5t-138.5 63t-91.5 73.5t-55 64z" />
<glyph unicode="4" horiz-adv-x="942" d="M68 418v61l550 955h72v-955h164v-61h-164v-418h-61v418h-561zM139 479h490v850z" />
<glyph unicode="5" horiz-adv-x="1089" d="M88 229l57 25q2 -8 9.5 -22.5t36 -51.5t66.5 -65.5t106.5 -51t150.5 -22.5q188 0 297 128t109 316q0 180 -124 310.5t-296 130.5h-277v508h606v-62h-544v-385h223q190 0 331.5 -143.5t141.5 -358.5q0 -217 -128 -361t-339 -144q-98 0 -178 25.5t-124 62t-75 73.5t-39 64z " />
<glyph unicode="6" horiz-adv-x="1077" d="M111 489q0 131 48 282t136 295t237.5 252.5t331.5 137.5l17 -59q-137 -20 -256 -91t-200 -168.5t-139.5 -213t-86 -227.5t-27.5 -210q0 -207 110.5 -327.5t292.5 -120.5q135 0 234.5 71.5t99.5 243.5q0 88 -36.5 157t-91 104.5t-105.5 53t-90 17.5q-59 0 -119.5 -18.5 t-90.5 -35t-38 -24.5l-37 51q14 10 37.5 24.5t97.5 39.5t148 25q135 0 261 -103.5t126 -292.5q0 -193 -114 -282.5t-284 -89.5q-207 0 -334.5 139t-127.5 370z" />
<glyph unicode="7" horiz-adv-x="843" d="M51 1372v62h774q-20 -35 -55 -95.5t-123 -239.5t-154.5 -346t-122 -378t-55.5 -375h-61q0 227 89 519t187.5 497t192.5 356h-672z" />
<glyph unicode="8" horiz-adv-x="1196" d="M125 399q0 260 250 355q-172 96 -172 301q0 174 111.5 286.5t281.5 112.5q172 0 284.5 -112.5t112.5 -286.5q0 -205 -172 -301q250 -94 250 -355q0 -184 -122 -301.5t-353 -117.5t-351 117.5t-120 301.5zM186 399q0 -184 123 -271t287 -87t289 87t125 271q0 219 -211 297 l-123 45l115 66q141 78 141 248q0 90 -33 158.5t-85 105.5t-107.5 55.5t-108.5 18.5t-108.5 -18.5t-107.5 -55.5t-85 -105.5t-33 -158.5q0 -170 142 -248l114 -66l-123 -45q-211 -78 -211 -297z" />
<glyph unicode="9" horiz-adv-x="1079" d="M106 1081q0 193 114 283t284 90q207 0 335 -139t128 -371q0 -131 -48.5 -281.5t-136.5 -295t-237.5 -253t-331.5 -137.5l-16 60q137 20 255.5 91t199.5 168t139.5 213t86 227.5t27.5 209.5q0 207 -110.5 328t-292.5 121q-135 0 -234.5 -72t-99.5 -244q0 -88 37 -156.5 t91 -104.5t105.5 -53t90.5 -17q59 0 119.5 18t90 34.5t37.5 24.5l37 -51q-14 -10 -37.5 -24.5t-97.5 -39t-147 -24.5q-135 0 -261.5 103.5t-126.5 291.5z" />
<glyph unicode=":" horiz-adv-x="499" d="M182 205v119h135v-119h-135zM182 614v119h135v-119h-135z" />
<glyph unicode=";" horiz-adv-x="536" d="M180 -115q23 31 54.5 127.5t31.5 192.5h-59v119h135q0 -309 -111 -471zM207 614v119h135v-119h-135z" />
<glyph unicode="&#x3c;" horiz-adv-x="899" d="M88 717l631 631l43 -43l-588 -588l588 -588l-43 -43z" />
<glyph unicode="=" horiz-adv-x="892" d="M182 604v62h529v-62h-529zM182 768v61h529v-61h-529z" />
<glyph unicode="&#x3e;" horiz-adv-x="899" d="M137 129l588 588l-588 588l43 43l631 -631l-631 -631z" />
<glyph unicode="?" horiz-adv-x="1038" d="M98 1122q43 168 139.5 250t254.5 82q225 0 325.5 -88t100.5 -287q0 -86 -34 -158.5t-83 -120.5t-108.5 -101.5t-108.5 -101.5t-83 -119.5t-34 -158.5h-61q0 94 33.5 173t82.5 129.5t108.5 104.5t108.5 99t83 112t34 142q0 102 -28.5 168t-85 95.5t-113 40t-137.5 10.5 q-119 0 -200 -55.5t-124 -192.5l221 -166h-100zM369 0v119h135v-119h-135z" />
<glyph unicode="@" horiz-adv-x="1294" d="M139 709q0 299 145.5 483t366.5 184q182 0 304 -172t122 -383v-123l-98 74q-68 47 -131 47q-135 0 -135 -119q0 -139 213 -139h207v-61h-207q-274 0 -275 200q0 92 58.5 136.5t138.5 44.5q88 0 168 -60q0 186 -106.5 340t-258.5 154q-193 0 -321.5 -165t-128.5 -441 q0 -313 124 -490.5t351 -177.5q133 0 253 65.5t204 184.5l51 -35q-92 -131 -226.5 -203.5t-281.5 -72.5q-258 0 -397.5 196.5t-139.5 532.5z" />
<glyph unicode="A" d="M37 0l522 1436l522 -1436h-841v61h753l-434 1194l-457 -1255h-65z" />
<glyph unicode="B" horiz-adv-x="1185" d="M203 0v1434h250q270 0 407 -99.5t137 -279.5q0 -205 -172 -301q250 -94 250 -355q0 -184 -135.5 -291.5t-409.5 -107.5h-327zM264 61h266q96 0 176 15.5t153 51.5t114 105.5t41 165.5q0 219 -211 297l-123 45l115 66q141 78 141 248q0 317 -483 317h-189v-1311z" />
<glyph unicode="C" horiz-adv-x="1202" d="M158 616v201q0 328 112.5 482.5t364.5 154.5q201 0 301 -73.5t156 -209.5l-56 -26q-47 119 -133 183.5t-268 64.5q-100 0 -172 -26t-129.5 -87t-86 -177t-28.5 -286v-201q0 -170 28.5 -285.5t86 -177t129.5 -87t172 -25.5q182 0 268 64.5t133 183.5l56 -27 q-55 -135 -155.5 -208.5t-301.5 -73.5q-252 0 -364.5 154.5t-112.5 481.5z" />
<glyph unicode="D" horiz-adv-x="1214" d="M203 0v1434h196q295 0 500 -217.5t205 -500t-205 -499.5t-500 -217h-196zM264 61h135q268 0 455.5 198t187.5 458t-187 457.5t-456 197.5h-135v-1311z" />
<glyph unicode="E" horiz-adv-x="1179" d="M203 0v1434h903l-627 -623h459v-61h-608l626 622h-692v-1311h795v-61h-856z" />
<glyph unicode="F" horiz-adv-x="1126" d="M203 0v1434h903l-627 -623h459v-61h-608l626 622h-692v-1372h-61z" />
<glyph unicode="G" horiz-adv-x="1259" d="M158 616v201q0 328 112.5 482.5t364.5 154.5q203 0 303 -74.5t156 -212.5l-58 -22q-47 119 -133 183.5t-268 64.5q-100 0 -172 -26t-129.5 -87t-86 -177t-28.5 -286v-201q0 -170 28.5 -285.5t86 -177t129.5 -87t172 -25.5q184 0 292.5 79t108.5 169v346h-252v61h326v-387 q0 -137 -124 -233t-351 -96q-252 0 -364.5 154.5t-112.5 481.5z" />
<glyph unicode="H" horiz-adv-x="1265" d="M203 0v1434h61v-656h737v656h62v-1434h-62v717h-737v-717h-61z" />
<glyph unicode="I" horiz-adv-x="466" d="M203 0v1434h61v-1434h-61z" />
<glyph unicode="J" horiz-adv-x="1032" d="M41 309h74q90 -268 348 -268q174 0 242.5 99.5t68.5 273.5v1020h62v-1020q0 -434 -373 -434q-176 0 -271.5 88t-150.5 241z" />
<glyph unicode="K" horiz-adv-x="1173" d="M203 0v1434h61v-1434h-61zM330 750l688 684h88l-688 -684l753 -750h-88z" />
<glyph unicode="L" horiz-adv-x="1089" d="M203 0v1434h61v-1373h795v-61h-856z" />
<glyph unicode="M" horiz-adv-x="1449" d="M203 2v1434h61l461 -990l461 988l61 2v-1436l-868 2v59h807v1227l-461 -987l-461 989v-1290z" />
<glyph unicode="N" horiz-adv-x="1304" d="M203 0v1434h71l766 -1325v1325h62v-1434h-740v61h635l-733 1268v-1329h-61z" />
<glyph unicode="O" horiz-adv-x="1269" d="M158 616v201q0 328 112.5 482.5t364.5 154.5t364.5 -154.5t112.5 -482.5v-201q0 -328 -112.5 -482t-364.5 -154t-364.5 154.5t-112.5 481.5zM219 616q0 -170 28.5 -285.5t86 -177t129.5 -87t172 -25.5t172 25.5t129 87t86 177t29 285.5v201q0 170 -29 286t-86 177 t-129 87t-172 26t-172 -26t-129.5 -87t-86 -177t-28.5 -286v-201z" />
<glyph unicode="P" horiz-adv-x="1077" d="M203 0v1434h250q270 0 407 -99.5t137 -279.5q0 -205 -172 -301l-114 -66l-31 53l115 66q141 78 141 248q0 317 -483 317h-189v-1372h-61z" />
<glyph unicode="Q" horiz-adv-x="1275" d="M158 616v201q0 328 112.5 482.5t364.5 154.5t364.5 -154.5t112.5 -482.5v-201q0 -399 -172 -544l-39 47q150 127 150 497v201q0 170 -29 286t-86 177t-129 87t-172 26t-172 -26t-129.5 -87t-86 -177t-28.5 -286v-201q0 -170 28.5 -285.5t86 -177t129.5 -87t172 -25.5 q0 -227 72.5 -308t226.5 -81v-62q-166 0 -256 82t-103 310q-219 18 -318 172.5t-99 461.5z" />
<glyph unicode="R" horiz-adv-x="1126" d="M203 0v1434h250q270 0 407 -99.5t137 -279.5q0 -205 -172 -301l-69 -39l260 -715h-654v61h566l-248 680l115 66q141 78 141 248q0 317 -483 317h-189v-1372h-61z" />
<glyph unicode="S" horiz-adv-x="1148" d="M109 311l57 25q41 -166 140.5 -230.5t275.5 -64.5q197 0 292 76t95 268q0 90 -83 159.5t-203 119t-238.5 100.5t-201.5 131t-83 184q0 199 100 287t326 88q158 0 254 -82t139 -250l-191 -143h-100l221 166q-43 137 -123.5 192.5t-199.5 55.5q-82 0 -138.5 -10.5 t-112.5 -40t-85 -95t-29 -168.5q0 -90 83 -159.5t202 -118.5t238.5 -100.5t202.5 -131.5t83 -184q0 -205 -101.5 -305t-346.5 -100q-201 0 -315.5 80.5t-157.5 250.5z" />
<glyph unicode="T" horiz-adv-x="1085" d="M31 1372v62h1024v-62h-482v-1372h-61v1372h-481z" />
<glyph unicode="U" horiz-adv-x="1323" d="M184 616v818h62v-818q0 -170 28.5 -285.5t86 -177t129 -87t172 -25.5t172 25.5t129 87t86 177t28.5 285.5v756h-723v62h785v-818q0 -328 -113 -482t-364.5 -154t-364.5 154.5t-113 481.5z" />
<glyph unicode="V" horiz-adv-x="1114" d="M35 1434h65l457 -1256l434 1194h-751v62h839l-522 -1436z" />
<glyph unicode="W" horiz-adv-x="1644" d="M35 1434h65l457 -1256l264 729l266 -729l435 1194h-1282v62h1370l-523 -1436l-266 729l-264 -729z" />
<glyph unicode="X" horiz-adv-x="991" d="M59 0l402 756l-361 678h70l326 -613l325 613h70l-361 -678l402 -756h-70l-366 690l-367 -690h-70z" />
<glyph unicode="Y" d="M16 1434h72l471 -752l432 690h-719v62h830l-512 -820v-614h-62v614z" />
<glyph unicode="Z" horiz-adv-x="983" d="M63 0l730 1372h-676v62h778l-729 -1373h733v-61h-836z" />
<glyph unicode="[" horiz-adv-x="534" d="M205 0v1434h221v-62h-160v-1311h160v-61h-221z" />
<glyph unicode="\" horiz-adv-x="841" d="M78 1485l55 22l629 -1558l-55 -23z" />
<glyph unicode="]" horiz-adv-x="534" d="M109 0v61h159v1311h-159v62h221v-1434h-221z" />
<glyph unicode="^" horiz-adv-x="663" d="M92 1319l240 287l239 -287l-47 -39l-192 229l-193 -229z" />
<glyph unicode="_" horiz-adv-x="1028" d="M104 -123h820v-61h-820v61z" />
<glyph unicode="`" horiz-adv-x="471" d="M92 1565l47 41l240 -287l-47 -39z" />
<glyph unicode="a" horiz-adv-x="1101" d="M39 0l512 1208l512 -1208h-760v61h668l-420 990l-447 -1051h-65z" />
<glyph unicode="b" horiz-adv-x="1097" d="M195 0v1188h225q242 0 365.5 -84t123.5 -230q0 -174 -153 -251q113 -39 168 -116t55 -177q0 -147 -122 -238.5t-368 -91.5h-294zM256 61h233q180 0 304.5 66t124.5 203q0 63 -47.5 138t-145.5 110l-107 36l99 52q51 27 91 81t40 127q0 129 -123 190.5t-305 61.5h-164 v-1065z" />
<glyph unicode="c" horiz-adv-x="1099" d="M143 594q0 324 111 469t367 145t368 -141l-45 -41q-90 121 -323 121q-102 0 -172 -21.5t-128.5 -80t-87 -170t-28.5 -281.5t28.5 -281.5t87 -170t128 -80t172.5 -21.5q233 0 323 121l45 -41q-113 -141 -368.5 -141t-366.5 145t-111 469z" />
<glyph unicode="d" horiz-adv-x="1132" d="M195 0v1188h155q303 0 483.5 -160t180.5 -434.5t-180.5 -434t-483.5 -159.5h-155zM256 61h94q276 0 439 141.5t163 391.5t-162.5 391t-439.5 141h-94v-1065z" />
<glyph unicode="e" horiz-adv-x="1122" d="M143 594q0 324 111 469t367 145q297 0 403 -194l-502 -420h-96l518 432q-90 121 -323 121q-102 0 -172 -21.5t-128.5 -80t-87 -170t-28.5 -281.5t28.5 -281.5t87 -170t128 -80t172.5 -21.5q233 0 323 121l45 -41q-113 -141 -368.5 -141t-366.5 145t-111 469z" />
<glyph unicode="f" horiz-adv-x="1175" d="M174 0v594q0 324 111.5 469t365.5 145q297 0 404 -194l-428 -359h436v-61h-606l518 432q-90 121 -324 121q-102 0 -171.5 -21.5t-128 -80t-87 -170t-28.5 -281.5v-594h-62z" />
<glyph unicode="g" horiz-adv-x="1167" d="M143 594q0 324 111 469t367 145q297 0 403 -194l-256 -215h-96l272 227q-90 121 -323 121q-102 0 -172 -21.5t-128.5 -80t-87 -170t-28.5 -281.5t28.5 -281.5t87 -170t128 -80t172.5 -21.5q231 0 321 119v362h62v-540q0 -391 -359 -392h-239v62h239q154 0 225.5 81 t71.5 308v31q-111 -92 -321 -92q-256 0 -367 145t-111 469z" />
<glyph unicode="h" horiz-adv-x="1126" d="M195 0v1188h61v-533h614v533h62v-1188h-62v594h-614v-594h-61z" />
<glyph unicode="i" horiz-adv-x="450" d="M195 0v1188h61v-1188h-61z" />
<glyph unicode="j" horiz-adv-x="884" d="M-43 -80h74q55 -268 317 -268q170 0 225.5 95t55.5 278v1163h61v-1163q0 -57 -2 -92t-10 -94.5t-30.5 -95.5t-58.5 -76t-97.5 -58.5t-143.5 -18.5q-322 0 -391 330z" />
<glyph unicode="k" horiz-adv-x="1054" d="M195 0v1188h61v-1188h-61zM322 627l565 561h88l-565 -561l630 -627h-88z" />
<glyph unicode="l" horiz-adv-x="919" d="M195 0v1188h61v-1127h623v-61h-684z" />
<glyph unicode="m" horiz-adv-x="1433" d="M195 2v1186h61l461 -461l461 461h61v-1188l-852 2v59h791v1041l-461 -461l-461 461v-1102z" />
<glyph unicode="n" horiz-adv-x="1179" d="M195 0v1188h61l668 -1075v1075h61v-1188h-61l-668 1077v-1077h-61z" />
<glyph unicode="o" horiz-adv-x="1241" d="M143 594q0 324 111 469t367 145t366.5 -145t110.5 -469t-110.5 -469t-366.5 -145t-367 145t-111 469zM205 594q0 -170 28.5 -281.5t87 -170t128 -80t172 -21.5t172 21.5t128 80t87 170t28.5 281.5t-28.5 281.5t-87 170t-128 80t-172 21.5t-172 -21.5t-128 -80t-87 -170 t-28.5 -281.5z" />
<glyph unicode="p" horiz-adv-x="1083" d="M195 -410v1598h249q270 0 407.5 -99.5t137.5 -279.5q0 -205 -172 -301l-115 -66l-30 54l114 65q141 78 142 248q0 317 -484 317h-188v-1536h-61z" />
<glyph unicode="q" horiz-adv-x="1243" d="M145 594q0 324 112 469t366 145t365.5 -145t111.5 -469q0 -410 -187 -541l-34 49q159 110 159 492q0 170 -28.5 281.5t-87 170t-128 80t-172 21.5t-172 -21.5t-128 -80t-87 -170t-28.5 -281.5t28.5 -281.5t87 -170t128 -80t172.5 -21.5q0 -227 72.5 -308t226.5 -81v-62 q-166 0 -256.5 82.5t-102.5 309.5q-223 14 -320.5 160.5t-97.5 451.5z" />
<glyph unicode="r" horiz-adv-x="1056" d="M195 0v1188h225q242 0 365.5 -84t123.5 -230q0 -94 -63.5 -166.5t-151.5 -111.5l279 -596h-68l-287 614q4 2 36 17.5t44.5 23t41 25.5t43 35.5t31.5 41t25.5 53.5t8.5 64q0 129 -123 190.5t-305 61.5h-164v-1126h-61z" />
<glyph unicode="s" horiz-adv-x="1058" d="M129 86l41 45q104 -96 322 -96q199 0 300 73.5t101 172.5q0 102 -78 165.5t-189.5 95t-223 65.5t-189.5 105.5t-78 188.5q0 158 105.5 234.5t267.5 76.5q254 0 360 -112l-41 -45q-98 96 -311 96q-319 0 -319 -254q0 -98 77.5 -156.5t189 -89t223.5 -64.5t189.5 -109 t77.5 -195q0 -141 -116.5 -225.5t-337.5 -84.5q-109 0 -214.5 29t-156.5 84z" />
<glyph unicode="t" horiz-adv-x="1003" d="M41 1126v62h922v-62h-431v-1126h-61v1126h-430z" />
<glyph unicode="u" horiz-adv-x="1200" d="M174 594v594h62v-594q0 -305 97 -429t267 -124t267.5 124t97.5 429v594h61v-594q0 -614 -426 -614t-426 614z" />
<glyph unicode="v" horiz-adv-x="1097" d="M37 1188h65l447 -1051l446 1051h66l-512 -1208z" />
<glyph unicode="w" horiz-adv-x="1714" d="M37 1188h65l447 -1051l309 727l307 -727l420 989h-1321v62h1413l-512 -1208l-307 727l-309 -727z" />
<glyph unicode="x" horiz-adv-x="937" d="M63 0l369 641l-315 547h71l281 -486l281 486h71l-315 -547l368 -641h-71l-334 578l-334 -578h-72z" />
<glyph unicode="y" horiz-adv-x="1093" d="M35 1188h65l447 -1051l420 989h-701v62h793l-481 -1137v-461h-62v461z" />
<glyph unicode="z" horiz-adv-x="946" d="M88 0l651 1126h-639v62h746l-651 -1127h659v-61h-766z" />
<glyph unicode="{" horiz-adv-x="555" d="M61 709v16q172 88 172 385q0 334 207 438l25 -51q-170 -86 -170 -387q0 -287 -148 -393q147 -106 148 -393q0 -301 170 -387l-25 -52q-207 104 -207 439q0 297 -172 385z" />
<glyph unicode="|" horiz-adv-x="462" d="M201 -123v1679h61v-1679h-61z" />
<glyph unicode="}" horiz-adv-x="555" d="M90 -63q170 86 170 387q0 287 148 393q-147 106 -148 393q0 301 -170 387l25 51q207 -104 207 -438q0 -297 172 -385v-16q-172 -88 -172 -385q0 -334 -207 -439z" />
<glyph unicode="~" horiz-adv-x="739" d="M139 1274q0 72 44 116t100 44q57 0 108 -49.5t92 -49.5q33 0 57.5 27t24.5 72h62q0 -72 -44.5 -116t-99.5 -44q-57 0 -108 49t-92 49q-33 0 -57.5 -26.5t-24.5 -71.5h-62z" />
<glyph unicode="&#xa1;" horiz-adv-x="466" d="M166 1069v119h135v-119h-135zM203 -246v1157h61v-1157h-61z" />
<glyph unicode="&#xa2;" horiz-adv-x="1091" d="M125 702q0 514 430 541v191h61v-189q246 -2 355 -141l-45 -41q-90 117 -310 121v-963q219 4 310 121l45 -41q-119 -152 -355 -158v-143h-61v145q-221 14 -325.5 162t-104.5 395zM186 702.5q0 -452.5 369 -479.5v959q-369 -27 -369 -479.5z" />
<glyph unicode="&#xa3;" horiz-adv-x="1099" d="M104 0v66q76 43 111 119.5t35 220.5v411q0 332 84 484.5t291 152.5q176 0 268 -119l-55 -37q-80 94 -213 95q-156 0 -235 -124t-79 -452h244v-61h-244v-350q0 -231 -118 -345h811v-61h-900z" />
<glyph unicode="&#xa4;" horiz-adv-x="985" d="M168 231l121 121q-63 78 -64 172q0 84 54 158l-111 111l45 43l109 -109q78 63 170 64q94 0 172 -64l108 109l45 -43l-110 -111q53 -74 53 -158q0 -94 -64 -172l121 -121l-45 -43l-123 123q-74 -53 -157.5 -53t-157.5 53l-121 -123zM287 524q0 -84 60.5 -144.5t144 -60.5 t145 60.5t61.5 144.5t-61.5 144.5t-145 60.5t-144 -60.5t-60.5 -144.5z" />
<glyph unicode="&#xa5;" horiz-adv-x="1044" d="M94 1434h74l354 -568l355 568h73l-397 -635v-123h283v-62h-283v-143h283v-61h-283v-410h-61v410h-283v61h283v143h-283v62h283v123z" />
<glyph unicode="&#xa6;" horiz-adv-x="471" d="M205 -123v737h61v-737h-61zM205 819v737h61v-737h-61z" />
<glyph unicode="&#xa8;" horiz-adv-x="684" d="M92 1339v119h135v-119h-135zM457 1339v119h135v-119h-135z" />
<glyph unicode="&#xa9;" horiz-adv-x="1249" d="M147 594q0 324 111 469t367 145t366.5 -145t110.5 -469t-110.5 -469t-366.5 -145t-367 145t-111 469zM209 594q0 -170 28.5 -281.5t87 -170t128 -80t172 -21.5t172 21.5t128 80t87 170t28.5 281.5t-28.5 281.5t-87 170t-128 80t-172 21.5t-172 -21.5t-128 -80t-87 -170 t-28.5 -281.5zM373 594q0 162 57 243t197 81q135 0 204 -89l-45 -41l-10 15q-41 53 -149 53q-113 0 -153 -61.5t-40 -200.5q0 -141 41 -201.5t151.5 -60.5t149.5 53l10 14l45 -41l-8 -12q-59 -76 -196 -76q-141 0 -197.5 82t-56.5 242z" />
<glyph unicode="&#xab;" horiz-adv-x="884" d="M125 717l287 239l39 -47l-230 -192l230 -193l-39 -47zM371 717l286 239l39 -47l-229 -192l229 -193l-39 -47z" />
<glyph unicode="&#xad;" horiz-adv-x="745" d="M170 481v62h405v-62h-405z" />
<glyph unicode="&#xae;" horiz-adv-x="1249" d="M147 594q0 324 111 469t367 145t366.5 -145t110.5 -469t-110.5 -469t-366.5 -145t-367 145t-111 469zM209 594q0 -170 28.5 -281.5t87 -170t128 -80t172 -21.5t172 21.5t128 80t87 170t28.5 281.5t-28.5 281.5t-87 170t-128 80t-172 21.5t-172 -21.5t-128 -80t-87 -170 t-28.5 -281.5zM432 283v622h127q127 0 193.5 -46t66.5 -126q0 -90 -102 -145l143 -305h-67l-154 327q4 2 21.5 10.5t23.5 12.5t21.5 13t21.5 16.5t15.5 18.5t12.5 24.5t3 27.5q0 55 -56.5 83t-142.5 28h-65v-561h-62z" />
<glyph unicode="&#xaf;" horiz-adv-x="614" d="M70 1372v62h450v-62h-450z" />
<glyph unicode="&#xb0;" horiz-adv-x="659" d="M125 1374q0 88 61.5 146.5t143.5 58.5q88 0 146.5 -61.5t58.5 -143.5q0 -88 -61.5 -146.5t-143.5 -58.5q-88 0 -146.5 61.5t-58.5 143.5zM186 1374q0 -61 43 -102t101 -41q61 0 102 43t41 100q0 61 -43 102.5t-100 41.5q-61 0 -102.5 -43t-41.5 -101z" />
<glyph unicode="&#xb4;" horiz-adv-x="471" d="M92 1319l240 287l47 -41l-240 -285z" />
<glyph unicode="&#xb7;" horiz-adv-x="499" d="M182 614v119h135v-119h-135z" />
<glyph unicode="&#xb8;" horiz-adv-x="348" d="M92 -360q88 68 88 165h-59v119h135q0 -145 -26.5 -206.5t-96.5 -123.5z" />
<glyph unicode="&#xbb;" horiz-adv-x="884" d="M188 524l230 193l-230 192l39 47l287 -239l-287 -240zM434 524l230 193l-230 192l39 47l287 -239l-287 -240z" />
<glyph unicode="&#xbf;" horiz-adv-x="1026" d="M115 109q0 86 33.5 158.5t83 120.5t108.5 101.5t108.5 101.5t83 119.5t33.5 157.5h62q0 -94 -34 -173t-83 -129t-108.5 -104t-108.5 -99.5t-83 -112t-34 -141.5q0 -102 28.5 -168t85 -95.5t113 -40t138.5 -10.5q119 0 199.5 55.5t123.5 192.5l-221 166h100l191 -143 q-43 -168 -139.5 -250t-253.5 -82q-225 0 -325.5 88t-100.5 287zM528 1069v119h136v-119h-136z" />
<glyph unicode="&#xc0;" d="M37 0l522 1436l522 -1436h-841v61h753l-434 1194l-457 -1255h-65zM368 1762l47 41l240 -287l-47 -39z" />
<glyph unicode="&#xc1;" d="M37 0l522 1436l522 -1436h-841v61h753l-434 1194l-457 -1255h-65zM465 1516l240 287l47 -41l-240 -285z" />
<glyph unicode="&#xc2;" d="M37 0l522 1436l522 -1436h-841v61h753l-434 1194l-457 -1255h-65zM319 1483l240 287l239 -287l-47 -39l-192 229l-193 -229z" />
<glyph unicode="&#xc3;" d="M37 0l522 1436l522 -1436h-841v61h753l-434 1194l-457 -1255h-65zM319 1479q0 72 44 116t100 44q57 0 108 -49.5t92 -49.5q33 0 57.5 27t24.5 72h62q0 -72 -44.5 -116t-99.5 -44q-57 0 -108.5 49t-91.5 49q-33 0 -57.5 -26.5t-24.5 -71.5h-62z" />
<glyph unicode="&#xc4;" d="M37 0l522 1436l522 -1436h-841v61h753l-434 1194l-457 -1255h-65zM309 1544v119h135v-119h-135zM674 1544v119h135v-119h-135z" />
<glyph unicode="&#xc5;" d="M37 0l522 1436l522 -1436h-841v61h753l-434 1194l-457 -1255h-65zM416 1599q0 57 41.5 100t102.5 43q57 0 100 -41t43 -102q0 -57 -41 -100.5t-102 -43.5q-57 0 -100.5 41t-43.5 103zM467 1599q0 -39 28 -66t65 -27q39 0 65.5 28t26.5 65q0 39 -27.5 65.5t-64.5 26.5 q-39 0 -66 -27.5t-27 -64.5z" />
<glyph unicode="&#xc6;" horiz-adv-x="1648" d="M4 0l668 1434h903l-627 -623h459v-61h-608l626 622h-692v-1311h795v-61h-856v1284l-572 -1223h379v-61h-475z" />
<glyph unicode="&#xc7;" horiz-adv-x="1202" d="M158 616v201q0 328 112.5 482.5t364.5 154.5q201 0 301 -73.5t156 -209.5l-56 -26q-47 119 -133 183.5t-268 64.5q-100 0 -172 -26t-129.5 -87t-86 -177t-28.5 -286v-201q0 -170 28.5 -285.5t86 -177t129.5 -87t172 -25.5q182 0 268 64.5t133 183.5l56 -27 q-55 -135 -155.5 -208.5t-301.5 -73.5q-252 0 -364.5 154.5t-112.5 481.5zM549 -360q88 68 88 165h-59v119h135q0 -145 -26.5 -206.5t-96.5 -123.5z" />
<glyph unicode="&#xc8;" horiz-adv-x="1179" d="M203 0v1434h903l-627 -623h459v-61h-608l626 622h-692v-1311h795v-61h-856zM442 1761l47 41l240 -287l-47 -39z" />
<glyph unicode="&#xc9;" horiz-adv-x="1179" d="M203 0v1434h903l-627 -623h459v-61h-608l626 622h-692v-1311h795v-61h-856zM536 1515l240 287l47 -41l-240 -285z" />
<glyph unicode="&#xca;" horiz-adv-x="1179" d="M203 0v1434h903l-627 -623h459v-61h-608l626 622h-692v-1311h795v-61h-856zM393 1482l240 287l239 -287l-47 -39l-192 229l-193 -229z" />
<glyph unicode="&#xcb;" horiz-adv-x="1179" d="M203 0v1434h903l-627 -623h459v-61h-608l626 622h-692v-1311h795v-61h-856zM383 1544v119h135v-119h-135zM748 1544v119h135v-119h-135z" />
<glyph unicode="&#xcc;" horiz-adv-x="466" d="M80 1761l47 41l240 -287l-47 -39zM203 0v1434h61v-1434h-61z" />
<glyph unicode="&#xcd;" horiz-adv-x="466" d="M100 1515l240 287l47 -41l-240 -285zM203 0v1434h61v-1434h-61z" />
<glyph unicode="&#xce;" horiz-adv-x="466" d="M-7 1483l240 287l239 -287l-47 -39l-192 229l-193 -229zM203 0v1434h61v-1434h-61z" />
<glyph unicode="&#xcf;" horiz-adv-x="466" d="M-16 1544v119h135v-119h-135zM203 0v1434h61v-1434h-61zM349 1544v119h135v-119h-135z" />
<glyph unicode="&#xd0;" horiz-adv-x="1214" d="M72 686v62h131v686h196q295 0 500 -217.5t205 -500t-205 -499.5t-500 -217h-196v686h-131zM264 61h135q268 0 455.5 198t187.5 458t-187 457.5t-456 197.5h-135v-624h213v-62h-213v-625z" />
<glyph unicode="&#xd1;" horiz-adv-x="1304" d="M203 0v1434h71l766 -1325v1325h62v-1434h-740v61h635l-733 1268v-1329h-61zM410 1479q0 72 44 116t100 44q57 0 108 -49.5t92 -49.5q33 0 57.5 27t24.5 72h62q0 -72 -44.5 -116t-99.5 -44q-57 0 -108.5 49t-91.5 49q-33 0 -57.5 -26.5t-24.5 -71.5h-62z" />
<glyph unicode="&#xd2;" horiz-adv-x="1269" d="M158 616v201q0 328 112.5 482.5t364.5 154.5t364.5 -154.5t112.5 -482.5v-201q0 -328 -112.5 -482t-364.5 -154t-364.5 154.5t-112.5 481.5zM219 616q0 -170 28.5 -285.5t86 -177t129.5 -87t172 -25.5t172 25.5t129 87t86 177t29 285.5v201q0 170 -29 286t-86 177 t-129 87t-172 26t-172 -26t-129.5 -87t-86 -177t-28.5 -286v-201zM444 1761l47 41l240 -287l-47 -39z" />
<glyph unicode="&#xd3;" horiz-adv-x="1269" d="M158 616v201q0 328 112.5 482.5t364.5 154.5t364.5 -154.5t112.5 -482.5v-201q0 -328 -112.5 -482t-364.5 -154t-364.5 154.5t-112.5 481.5zM219 616q0 -170 28.5 -285.5t86 -177t129.5 -87t172 -25.5t172 25.5t129 87t86 177t29 285.5v201q0 170 -29 286t-86 177 t-129 87t-172 26t-172 -26t-129.5 -87t-86 -177t-28.5 -286v-201zM539 1516l240 287l47 -41l-240 -285z" />
<glyph unicode="&#xd4;" horiz-adv-x="1269" d="M158 616v201q0 328 112.5 482.5t364.5 154.5t364.5 -154.5t112.5 -482.5v-201q0 -328 -112.5 -482t-364.5 -154t-364.5 154.5t-112.5 481.5zM219 616q0 -170 28.5 -285.5t86 -177t129.5 -87t172 -25.5t172 25.5t129 87t86 177t29 285.5v201q0 170 -29 286t-86 177 t-129 87t-172 26t-172 -26t-129.5 -87t-86 -177t-28.5 -286v-201zM395 1483l240 287l239 -287l-47 -39l-192 229l-193 -229z" />
<glyph unicode="&#xd5;" horiz-adv-x="1269" d="M158 616v201q0 328 112.5 482.5t364.5 154.5t364.5 -154.5t112.5 -482.5v-201q0 -328 -112.5 -482t-364.5 -154t-364.5 154.5t-112.5 481.5zM219 616q0 -170 28.5 -285.5t86 -177t129.5 -87t172 -25.5t172 25.5t129 87t86 177t29 285.5v201q0 170 -29 286t-86 177 t-129 87t-172 26t-172 -26t-129.5 -87t-86 -177t-28.5 -286v-201zM395 1479q0 72 44 116t100 44q57 0 108 -49.5t92 -49.5q33 0 57.5 27t24.5 72h62q0 -72 -44.5 -116t-99.5 -44q-57 0 -108.5 49t-91.5 49q-33 0 -57.5 -26.5t-24.5 -71.5h-62z" />
<glyph unicode="&#xd6;" horiz-adv-x="1269" d="M158 616v201q0 328 112.5 482.5t364.5 154.5t364.5 -154.5t112.5 -482.5v-201q0 -328 -112.5 -482t-364.5 -154t-364.5 154.5t-112.5 481.5zM219 616q0 -170 28.5 -285.5t86 -177t129.5 -87t172 -25.5t172 25.5t129 87t86 177t29 285.5v201q0 170 -29 286t-86 177 t-129 87t-172 26t-172 -26t-129.5 -87t-86 -177t-28.5 -286v-201zM385 1544v119h135v-119h-135zM750 1544v119h135v-119h-135z" />
<glyph unicode="&#xd7;" horiz-adv-x="980" d="M166 231l280 281l-280 281l45 43l278 -281l281 281l45 -43l-280 -281l280 -281l-45 -43l-281 281l-278 -281z" />
<glyph unicode="&#xd8;" horiz-adv-x="1269" d="M158 616v201q0 328 112.5 482.5t364.5 154.5q147 0 244 -51l43 104l55 -22l-47 -115q182 -141 182 -553v-201q0 -328 -112.5 -482t-364.5 -154q-147 0 -244 51l-43 -105l-55 23l47 114q-182 141 -182 553zM219 616q0 -369 143 -493l494 1223q-84 47 -221 47 q-100 0 -172 -26t-129.5 -87t-86 -177t-28.5 -286v-201zM414 88q84 -47 221 -47q100 0 172 25.5t129 87t86 177t29 285.5v201q-1 369 -144 494z" />
<glyph unicode="&#xd9;" horiz-adv-x="1323" d="M184 616v818h62v-818q0 -170 28.5 -285.5t86 -177t129 -87t172 -25.5t172 25.5t129 87t86 177t28.5 285.5v818h62v-818q0 -328 -113 -482t-364.5 -154t-364.5 154.5t-113 481.5zM471 1762l47 41l240 -287l-47 -39z" />
<glyph unicode="&#xda;" horiz-adv-x="1323" d="M184 616v818h62v-818q0 -170 28.5 -285.5t86 -177t129 -87t172 -25.5t172 25.5t129 87t86 177t28.5 285.5v818h62v-818q0 -328 -113 -482t-364.5 -154t-364.5 154.5t-113 481.5zM565 1516l240 287l47 -41l-240 -285z" />
<glyph unicode="&#xdb;" horiz-adv-x="1323" d="M184 616v818h62v-818q0 -170 28.5 -285.5t86 -177t129 -87t172 -25.5t172 25.5t129 87t86 177t28.5 285.5v818h62v-818q0 -328 -113 -482t-364.5 -154t-364.5 154.5t-113 481.5zM422 1483l240 287l239 -287l-47 -39l-192 229l-193 -229z" />
<glyph unicode="&#xdc;" horiz-adv-x="1323" d="M184 616v818h62v-818q0 -170 28.5 -285.5t86 -177t129 -87t172 -25.5t172 25.5t129 87t86 177t28.5 285.5v818h62v-818q0 -328 -113 -482t-364.5 -154t-364.5 154.5t-113 481.5zM412 1544v119h135v-119h-135zM777 1544v119h135v-119h-135z" />
<glyph unicode="&#xdd;" d="M16 1434h72l471 -752l471 752h72l-512 -820v-614h-62v614zM471 1516l240 287l47 -41l-240 -285z" />
<glyph unicode="&#xde;" horiz-adv-x="1081" d="M203 0v1434h61v-308h189q270 0 407 -99t137 -279.5t-137 -279.5t-407 -99h-189v-369h-61zM264 430h189q483 0 483 317.5t-483 317.5h-189v-635z" />
<glyph unicode="&#xdf;" horiz-adv-x="1196" d="M195 0v967q0 225 84.5 346t236.5 121h119q102 0 156.5 -55.5t54.5 -139.5q0 -49 -38 -87t-92 -60.5t-108.5 -46t-92.5 -61.5t-38 -87q0 -98 64.5 -156.5t157 -89t184.5 -64.5t156.5 -109t64.5 -195q0 -137 -89 -223.5t-235 -86.5q-109 0 -214 29t-156 84l41 45 q104 -96 321 -96q129 0 199.5 74.5t70.5 171.5q0 102 -64.5 165.5t-156.5 95t-184 65.5t-156.5 105.5t-64.5 188.5q0 76 57 129t127 78t127 58.5t57 72.5q0 55 -35.5 94t-113.5 39h-119q-111 0 -185.5 -97t-74.5 -308v-967h-61z" />
<glyph unicode="&#xe0;" horiz-adv-x="1101" d="M39 0l512 1208l512 -1208h-760v61h668l-420 990l-447 -1051h-65zM360 1565l47 41l240 -287l-47 -39z" />
<glyph unicode="&#xe1;" horiz-adv-x="1101" d="M39 0l512 1208l512 -1208h-760v61h668l-420 990l-447 -1051h-65zM455 1319l240 287l47 -41l-240 -285z" />
<glyph unicode="&#xe2;" horiz-adv-x="1101" d="M39 0l512 1208l512 -1208h-760v61h668l-420 990l-447 -1051h-65zM311 1319l240 287l239 -287l-47 -39l-192 229l-193 -229z" />
<glyph unicode="&#xe3;" horiz-adv-x="1101" d="M39 0l512 1208l512 -1208h-760v61h668l-420 990l-447 -1051h-65zM311 1274q0 72 44 116t100 44q57 0 108 -49.5t92 -49.5q33 0 57.5 27t24.5 72h62q0 -72 -44.5 -116t-99.5 -44q-57 0 -108.5 49t-91.5 49q-33 0 -57.5 -26.5t-24.5 -71.5h-62z" />
<glyph unicode="&#xe4;" horiz-adv-x="1101" d="M39 0l512 1208l512 -1208h-760v61h668l-420 990l-447 -1051h-65zM301 1339v119h135v-119h-135zM666 1339v119h135v-119h-135z" />
<glyph unicode="&#xe5;" horiz-adv-x="1101" d="M39 0l512 1208l512 -1208h-760v61h668l-420 990l-447 -1051h-65zM408 1436q0 57 41.5 100t102.5 43q57 0 100 -41t43 -102q0 -57 -41 -100.5t-102 -43.5q-57 0 -100.5 41t-43.5 103zM459 1436q0 -39 28 -66t65 -27q39 0 65.5 28t26.5 65q0 39 -27.5 65.5t-64.5 26.5 q-39 0 -66 -27.5t-27 -64.5z" />
<glyph unicode="&#xe6;" horiz-adv-x="1552" d="M20 0l553 1188h62v-209q100 229 416 229q297 0 403 -194l-502 -420h-96l518 432q-90 121 -323 121q-102 0 -172 -21.5t-128.5 -80t-87 -170t-28.5 -281.5t28.5 -281.5t87 -170t128 -80t172.5 -21.5q233 0 323 121l45 -41q-113 -141 -368.5 -141t-366.5 145t-111 469v448 l-456 -981h370v-61h-467z" />
<glyph unicode="&#xe7;" horiz-adv-x="1099" d="M143 594q0 324 111 469t367 145t368 -141l-45 -41q-90 121 -323 121q-102 0 -172 -21.5t-128.5 -80t-87 -170t-28.5 -281.5t28.5 -281.5t87 -170t128 -80t172.5 -21.5q233 0 323 121l45 -41q-113 -141 -368.5 -141t-366.5 145t-111 469zM524 -360q88 68 88 165h-59v119 h135q0 -145 -26.5 -206.5t-96.5 -123.5z" />
<glyph unicode="&#xe8;" horiz-adv-x="1122" d="M143 594q0 324 111 469t367 145q297 0 403 -194l-502 -420h-96l518 432q-90 121 -323 121q-102 0 -172 -21.5t-128.5 -80t-87 -170t-28.5 -281.5t28.5 -281.5t87 -170t128 -80t172.5 -21.5q233 0 323 121l45 -41q-113 -141 -368.5 -141t-366.5 145t-111 469zM407 1565 l47 41l240 -287l-47 -39z" />
<glyph unicode="&#xe9;" horiz-adv-x="1122" d="M143 594q0 324 111 469t367 145q297 0 403 -194l-502 -420h-96l518 432q-90 121 -323 121q-102 0 -172 -21.5t-128.5 -80t-87 -170t-28.5 -281.5t28.5 -281.5t87 -170t128 -80t172.5 -21.5q233 0 323 121l45 -41q-113 -141 -368.5 -141t-366.5 145t-111 469zM502 1319 l240 287l47 -41l-240 -285z" />
<glyph unicode="&#xea;" horiz-adv-x="1122" d="M143 594q0 324 111 469t367 145q297 0 403 -194l-502 -420h-96l518 432q-90 121 -323 121q-102 0 -172 -21.5t-128.5 -80t-87 -170t-28.5 -281.5t28.5 -281.5t87 -170t128 -80t172.5 -21.5q233 0 323 121l45 -41q-113 -141 -368.5 -141t-366.5 145t-111 469zM358 1319 l240 287l239 -287l-47 -39l-192 229l-193 -229z" />
<glyph unicode="&#xeb;" horiz-adv-x="1122" d="M143 594q0 324 111 469t367 145q297 0 403 -194l-502 -420h-96l518 432q-90 121 -323 121q-102 0 -172 -21.5t-128.5 -80t-87 -170t-28.5 -281.5t28.5 -281.5t87 -170t128 -80t172.5 -21.5q233 0 323 121l45 -41q-113 -141 -368.5 -141t-366.5 145t-111 469zM348 1339 v119h135v-119h-135zM713 1339v119h135v-119h-135z" />
<glyph unicode="&#xec;" horiz-adv-x="450" d="M73 1565l47 41l240 -287l-47 -39zM195 0v1188h61v-1188h-61z" />
<glyph unicode="&#xed;" horiz-adv-x="450" d="M92 1319l240 287l47 -41l-240 -285zM195 0v1188h61v-1188h-61z" />
<glyph unicode="&#xee;" horiz-adv-x="450" d="M-15 1319l240 287l239 -287l-47 -39l-192 229l-193 -229zM195 0v1188h61v-1188h-61z" />
<glyph unicode="&#xef;" horiz-adv-x="450" d="M-24 1339v119h135v-119h-135zM195 0v1188h61v-1188h-61zM341 1339v119h135v-119h-135z" />
<glyph unicode="&#xf0;" horiz-adv-x="1193" d="M119 492q0 512 477 512q113 0 192 -27l-221 262l-133 -113l-41 48l135 112l-112 135l47 41l112 -135l130 107l38 -48l-127 -108l340 -408q117 -141 117 -378q0 -512 -477 -512t-477 512zM180 491.5q0 -450.5 416 -450.5t416 450.5t-416 450.5t-416 -450.5z" />
<glyph unicode="&#xf1;" horiz-adv-x="1179" d="M195 0v1188h61l668 -1075v1075h61v-1188h-61l-668 1077v-1077h-61zM350 1274q0 72 44 116t100 44q57 0 108 -49.5t92 -49.5q33 0 57.5 27t24.5 72h62q0 -72 -44.5 -116t-99.5 -44q-57 0 -108.5 49t-91.5 49q-33 0 -57.5 -26.5t-24.5 -71.5h-62z" />
<glyph unicode="&#xf2;" horiz-adv-x="1241" d="M143 594q0 324 111 469t367 145t366.5 -145t110.5 -469t-110.5 -469t-366.5 -145t-367 145t-111 469zM205 594q0 -170 28.5 -281.5t87 -170t128 -80t172 -21.5t172 21.5t128 80t87 170t28.5 281.5t-28.5 281.5t-87 170t-128 80t-172 21.5t-172 -21.5t-128 -80t-87 -170 t-28.5 -281.5zM430 1565l47 41l240 -287l-47 -39z" />
<glyph unicode="&#xf3;" horiz-adv-x="1241" d="M143 594q0 324 111 469t367 145t366.5 -145t110.5 -469t-110.5 -469t-366.5 -145t-367 145t-111 469zM205 594q0 -170 28.5 -281.5t87 -170t128 -80t172 -21.5t172 21.5t128 80t87 170t28.5 281.5t-28.5 281.5t-87 170t-128 80t-172 21.5t-172 -21.5t-128 -80t-87 -170 t-28.5 -281.5zM524 1319l240 287l47 -41l-240 -285z" />
<glyph unicode="&#xf4;" horiz-adv-x="1241" d="M143 594q0 324 111 469t367 145t366.5 -145t110.5 -469t-110.5 -469t-366.5 -145t-367 145t-111 469zM205 594q0 -170 28.5 -281.5t87 -170t128 -80t172 -21.5t172 21.5t128 80t87 170t28.5 281.5t-28.5 281.5t-87 170t-128 80t-172 21.5t-172 -21.5t-128 -80t-87 -170 t-28.5 -281.5zM381 1319l240 287l239 -287l-47 -39l-192 229l-193 -229z" />
<glyph unicode="&#xf5;" horiz-adv-x="1241" d="M143 594q0 324 111 469t367 145t366.5 -145t110.5 -469t-110.5 -469t-366.5 -145t-367 145t-111 469zM205 594q0 -170 28.5 -281.5t87 -170t128 -80t172 -21.5t172 21.5t128 80t87 170t28.5 281.5t-28.5 281.5t-87 170t-128 80t-172 21.5t-172 -21.5t-128 -80t-87 -170 t-28.5 -281.5zM380 1274q0 72 44 116t100 44q57 0 108 -49.5t92 -49.5q33 0 57.5 27t24.5 72h62q0 -72 -44.5 -116t-99.5 -44q-57 0 -108.5 49t-91.5 49q-33 0 -57.5 -26.5t-24.5 -71.5h-62z" />
<glyph unicode="&#xf6;" horiz-adv-x="1241" d="M143 594q0 324 111 469t367 145t366.5 -145t110.5 -469t-110.5 -469t-366.5 -145t-367 145t-111 469zM205 594q0 -170 28.5 -281.5t87 -170t128 -80t172 -21.5t172 21.5t128 80t87 170t28.5 281.5t-28.5 281.5t-87 170t-128 80t-172 21.5t-172 -21.5t-128 -80t-87 -170 t-28.5 -281.5zM371 1339v119h135v-119h-135zM736 1339v119h135v-119h-135z" />
<glyph unicode="&#xf7;" horiz-adv-x="995" d="M178 481v62h639v-62h-639zM430 240v118h135v-118h-135zM430 666v118h135v-118h-135z" />
<glyph unicode="&#xf8;" horiz-adv-x="1241" d="M143 594q0 324 111 469t367 145q115 0 194 -26l51 129l56 -23l-52 -129q119 -59 173.5 -196.5t54.5 -368.5q0 -324 -110.5 -469t-366.5 -145q-129 0 -215 32l-41 -102l-56 22l43 107q-209 119 -209 555zM205 594q0 -391 170 -498l418 1030q-63 21 -172 21 q-102 0 -172 -21.5t-128.5 -80t-87 -170t-28.5 -281.5zM428 70q78 -29 193 -29q102 0 171.5 21.5t128 80t87 170t28.5 281.5q0 412 -188 510z" />
<glyph unicode="&#xf9;" horiz-adv-x="1200" d="M174 594v594h62v-594q0 -305 97 -429t267 -124t267.5 124t97.5 429v594h61v-594q0 -614 -426 -614t-426 614zM409 1565l47 41l240 -287l-47 -39z" />
<glyph unicode="&#xfa;" horiz-adv-x="1200" d="M174 594v594h62v-594q0 -305 97 -429t267 -124t267.5 124t97.5 429v594h61v-594q0 -614 -426 -614t-426 614zM504 1319l240 287l47 -41l-240 -285z" />
<glyph unicode="&#xfb;" horiz-adv-x="1200" d="M174 594v594h62v-594q0 -305 97 -429t267 -124t267.5 124t97.5 429v594h61v-594q0 -614 -426 -614t-426 614zM360 1319l240 287l239 -287l-47 -39l-192 229l-193 -229z" />
<glyph unicode="&#xfc;" horiz-adv-x="1200" d="M174 594v594h62v-594q0 -305 97 -429t267 -124t267.5 124t97.5 429v594h61v-594q0 -614 -426 -614t-426 614zM350 1339v119h135v-119h-135zM715 1339v119h135v-119h-135z" />
<glyph unicode="&#xfd;" horiz-adv-x="1093" d="M35 1188h65l447 -1051l446 1051h66l-481 -1137v-461h-62v461zM451 1319l240 287l47 -41l-240 -285z" />
<glyph unicode="&#xfe;" horiz-adv-x="1107" d="M195 -410v1844h61v-316l188 62q85 28 164 28q186 0 283.5 -144.5t97.5 -404.5q0 -211 -152.5 -376.5t-392.5 -231.5l-188 -51v-410h-61zM256 61l188 52q199 53 341.5 205.5t142.5 340.5q0 252 -93.5 370t-250.5 118q-53 0 -140 -29l-188 -61v-996z" />
<glyph unicode="&#xff;" horiz-adv-x="1093" d="M35 1188h65l447 -1051l446 1051h66l-481 -1137v-461h-62v461zM297 1339v119h135v-119h-135zM662 1339v119h135v-119h-135z" />
<glyph unicode="&#x152;" horiz-adv-x="1914" d="M158 616v201q0 328 112.5 482.5t364.5 154.5q195 0 303 -90v70h903l-627 -623h459v-61h-608l627 622h-693v-1311h795v-61h-856v70q-109 -90 -303 -90q-252 0 -364.5 154.5t-112.5 481.5zM219 616q0 -170 28.5 -285.5t86 -177t129.5 -87t172 -25.5q207 0 303 115v1122 q-96 115 -303 115q-100 0 -172 -26t-129.5 -87t-86 -177t-28.5 -286v-201z" />
<glyph unicode="&#x153;" horiz-adv-x="2015" d="M143 594q0 324 111 469t367 145q188 0 295.5 -76.5t150.5 -242.5q43 166 150.5 242.5t295.5 76.5q297 0 404 -194l-502 -420h-96l518 432q-90 121 -324 121q-102 0 -171.5 -21.5t-128 -80t-87 -170t-28.5 -281.5t28.5 -281.5t87 -170t128 -80t171.5 -21.5q233 0 324 121 l45 -41q-113 -141 -369 -141q-188 0 -295.5 76.5t-150.5 242.5q-43 -166 -150.5 -242.5t-295.5 -76.5q-256 0 -367 145t-111 469zM205 594q0 -170 28.5 -281.5t87 -170t128 -80t172 -21.5t172 21.5t128 80t87 170t28.5 281.5t-28.5 281.5t-87 170t-128 80t-172 21.5 t-172 -21.5t-128 -80t-87 -170t-28.5 -281.5z" />
<glyph unicode="&#x178;" d="M16 1434h72l471 -752l471 752h72l-512 -820v-614h-62v614zM309 1544v119h135v-119h-135zM674 1544v119h135v-119h-135z" />
<glyph unicode="&#x2c6;" horiz-adv-x="663" d="M92 1319l240 287l239 -287l-47 -39l-192 229l-193 -229z" />
<glyph unicode="&#x2dc;" horiz-adv-x="671" d="M92 1274q0 72 44 116t100 44q57 0 108 -49.5t92 -49.5q33 0 57.5 27t24.5 72h62q0 -72 -44.5 -116t-99.5 -44q-57 0 -108.5 49t-91.5 49q-33 0 -57.5 -26.5t-24.5 -71.5h-62z" />
<glyph unicode="&#x2000;" horiz-adv-x="901" />
<glyph unicode="&#x2001;" horiz-adv-x="1803" />
<glyph unicode="&#x2002;" horiz-adv-x="901" />
<glyph unicode="&#x2003;" horiz-adv-x="1803" />
<glyph unicode="&#x2004;" horiz-adv-x="601" />
<glyph unicode="&#x2005;" horiz-adv-x="450" />
<glyph unicode="&#x2006;" horiz-adv-x="300" />
<glyph unicode="&#x2007;" horiz-adv-x="300" />
<glyph unicode="&#x2008;" horiz-adv-x="225" />
<glyph unicode="&#x2009;" horiz-adv-x="360" />
<glyph unicode="&#x200a;" horiz-adv-x="100" />
<glyph unicode="&#x2010;" horiz-adv-x="745" d="M170 481v62h405v-62h-405z" />
<glyph unicode="&#x2011;" horiz-adv-x="745" d="M170 481v62h405v-62h-405z" />
<glyph unicode="&#x2012;" horiz-adv-x="745" d="M170 481v62h405v-62h-405z" />
<glyph unicode="&#x2013;" horiz-adv-x="978" d="M170 481v62h639v-62h-639z" />
<glyph unicode="&#x2014;" horiz-adv-x="1193" d="M170 481v62h854v-62h-854z" />
<glyph unicode="&#x2018;" horiz-adv-x="468" d="M160 983q0 309 110 471l52 -33q-23 -31 -54.5 -127t-31.5 -192h59v-119h-135z" />
<glyph unicode="&#x2019;" horiz-adv-x="452" d="M152 995q23 31 54.5 127.5t31.5 192.5h-60v119h135q0 -309 -110 -471z" />
<glyph unicode="&#x201a;" horiz-adv-x="474" d="M143 -316q23 31 54.5 127.5t31.5 192.5h-60v119h135q0 -309 -110 -471z" />
<glyph unicode="&#x201c;" horiz-adv-x="714" d="M160 983q0 309 110 471l52 -33q-23 -31 -54.5 -127t-31.5 -192h59v-119h-135zM405 983q0 309 110 471l52 -33q-23 -31 -54.5 -127t-31.5 -192h59v-119h-135z" />
<glyph unicode="&#x201d;" horiz-adv-x="698" d="M152 995q23 31 54.5 127.5t31.5 192.5h-60v119h135q0 -309 -110 -471zM398 995q23 31 54.5 127.5t31.5 192.5h-60v119h135q0 -309 -110 -471z" />
<glyph unicode="&#x201e;" horiz-adv-x="719" d="M143 -316q23 31 54.5 127.5t31.5 192.5h-60v119h135q0 -309 -110 -471zM389 -316q23 31 54.5 127.5t31.5 192.5h-60v119h135q0 -309 -110 -471z" />
<glyph unicode="&#x2022;" horiz-adv-x="835" d="M182 471v471h471v-471h-471zM244 532h348v349h-348v-349z" />
<glyph unicode="&#x2026;" horiz-adv-x="1073" d="M162 0v119h135v-119h-135zM469 0v119h135v-119h-135zM776 0v119h135v-119h-135z" />
<glyph unicode="&#x202f;" horiz-adv-x="360" />
<glyph unicode="&#x2039;" horiz-adv-x="638" d="M125 717l287 239l39 -47l-230 -192l230 -193l-39 -47z" />
<glyph unicode="&#x203a;" horiz-adv-x="638" d="M188 524l230 193l-230 192l39 47l287 -239l-287 -240z" />
<glyph unicode="&#x205f;" horiz-adv-x="450" />
<glyph unicode="&#x20ac;" horiz-adv-x="1269" d="M119 584v61h90v172v53h-90v62h94q18 266 132 394t341 128q201 0 301 -73.5t156 -209.5l-56 -26q-47 119 -133 183.5t-268 64.5q-186 0 -289.5 -100.5t-122.5 -360.5h529v-62h-533v-53v-172h533v-61h-533q6 -309 110.5 -426t305.5 -117q182 0 268 64.5t133 183.5l56 -27 q-55 -135 -155.5 -208.5t-301.5 -73.5q-246 0 -359.5 147t-117.5 457h-90z" />
<glyph unicode="&#x2122;" horiz-adv-x="1378" d="M145 1372v62h471v-62h-204v-553h-62v553h-205zM678 821v615h61l191 -410l190 408h62v-615l-62 -2v471l-190 -407l-191 409v-471z" />
<glyph unicode="&#x25fc;" horiz-adv-x="1190" d="M0 0v1190h1190v-1190h-1190z" />
</font>
</defs>
</svg>
